<svg xmlns="http://www.w3.org/2000/svg" version="1.1" xmlns:xlink="http://www.w3.org/1999/xlink" xmlns:svgjs="http://svgjs.dev/svgjs" width="1440" height="170" preserveAspectRatio="none" viewBox="0 0 1440 170"><g mask="url(&quot;#SvgjsMask1194&quot;)" fill="none"><rect width="1440" height="170" x="0" y="0" fill="rgba(14, 25, 93, 1)"></rect><path d="M-103.38 250.91L-103.38 250.91" stroke="#132e65" stroke-width="1.5"></path><path d="M-103.38 250.91L-82.44 340.53" stroke="#132e65" stroke-width="1.5"></path><path d="M-103.38 250.91L39.34 111.78" stroke="#132e65" stroke-width="1.5"></path><path d="M-82.44 340.53L-82.44 340.53" stroke="#132e65" stroke-width="1.5"></path><path d="M39.34 111.78L39.34 111.78" stroke="#132e65" stroke-width="1.5"></path><path d="M39.34 111.78L95.72 197.17" stroke="#132e65" stroke-width="1.5"></path><path d="M39.34 111.78L227.8 261.78" stroke="#132e65" stroke-width="1.5"></path><path d="M39.34 111.78L-82.44 340.53" stroke="#132e65" stroke-width="1.5"></path><path d="M95.72 197.17L95.72 197.17" stroke="#132e65" stroke-width="1.5"></path><path d="M95.72 197.17L227.8 261.78" stroke="#132e65" stroke-width="1.5"></path><path d="M95.72 197.17L-103.38 250.91" stroke="#132e65" stroke-width="1.5"></path><path d="M95.72 197.17L212.69 367.16" stroke="#132e65" stroke-width="1.5"></path><path d="M95.72 197.17L-82.44 340.53" stroke="#132e65" stroke-width="1.5"></path><path d="M95.72 197.17L354.6 233.48" stroke="#132e65" stroke-width="1.5"></path><path d="M227.8 261.78L227.8 261.78" stroke="#132e65" stroke-width="1.5"></path><path d="M227.8 261.78L212.69 367.16" stroke="#132e65" stroke-width="1.5"></path><path d="M227.8 261.78L354.6 233.48" stroke="#132e65" stroke-width="1.5"></path><path d="M212.69 367.16L212.69 367.16" stroke="#132e65" stroke-width="1.5"></path><path d="M212.69 367.16L374.01 378.63" stroke="#132e65" stroke-width="1.5"></path><path d="M354.6 233.48L354.6 233.48" stroke="#132e65" stroke-width="1.5"></path><path d="M354.6 233.48L374.01 378.63" stroke="#132e65" stroke-width="1.5"></path><path d="M354.6 233.48L510.22 246.39" stroke="#132e65" stroke-width="1.5"></path><path d="M354.6 233.48L212.69 367.16" stroke="#132e65" stroke-width="1.5"></path><path d="M354.6 233.48L531.13 341.98" stroke="#132e65" stroke-width="1.5"></path><path d="M374.01 378.63L374.01 378.63" stroke="#132e65" stroke-width="1.5"></path><path d="M374.01 378.63L531.13 341.98" stroke="#132e65" stroke-width="1.5"></path><path d="M374.01 378.63L227.8 261.78" stroke="#132e65" stroke-width="1.5"></path><path d="M374.01 378.63L510.22 246.39" stroke="#132e65" stroke-width="1.5"></path><path d="M374.01 378.63L657.44 411.1" stroke="#132e65" stroke-width="1.5"></path><path d="M510.22 246.39L510.22 246.39" stroke="#132e65" stroke-width="1.5"></path><path d="M510.22 246.39L531.13 341.98" stroke="#132e65" stroke-width="1.5"></path><path d="M510.22 246.39L666.28 197.06" stroke="#132e65" stroke-width="1.5"></path><path d="M531.13 341.98L531.13 341.98" stroke="#132e65" stroke-width="1.5"></path><path d="M531.13 341.98L657.44 411.1" stroke="#132e65" stroke-width="1.5"></path><path d="M683.32 98.98L683.32 98.98" stroke="#132e65" stroke-width="1.5"></path><path d="M683.32 98.98L666.28 197.06" stroke="#132e65" stroke-width="1.5"></path><path d="M683.32 98.98L857.02 61.72" stroke="#132e65" stroke-width="1.5"></path><path d="M683.32 98.98L837.62 197.52" stroke="#132e65" stroke-width="1.5"></path><path d="M683.32 98.98L510.22 246.39" stroke="#132e65" stroke-width="1.5"></path><path d="M683.32 98.98L959.74 40.66" stroke="#132e65" stroke-width="1.5"></path><path d="M683.32 98.98L531.13 341.98" stroke="#132e65" stroke-width="1.5"></path><path d="M666.28 197.06L666.28 197.06" stroke="#132e65" stroke-width="1.5"></path><path d="M657.44 411.1L657.44 411.1" stroke="#132e65" stroke-width="1.5"></path><path d="M657.44 411.1L851.08 383.4" stroke="#132e65" stroke-width="1.5"></path><path d="M657.44 411.1L666.28 197.06" stroke="#132e65" stroke-width="1.5"></path><path d="M657.44 411.1L510.22 246.39" stroke="#132e65" stroke-width="1.5"></path><path d="M857.02 61.72L857.02 61.72" stroke="#132e65" stroke-width="1.5"></path><path d="M857.02 61.72L959.74 40.66" stroke="#132e65" stroke-width="1.5"></path><path d="M857.02 61.72L837.62 197.52" stroke="#132e65" stroke-width="1.5"></path><path d="M857.02 61.72L979.46 188.75" stroke="#132e65" stroke-width="1.5"></path><path d="M857.02 61.72L1004.17 -38.82" stroke="#132e65" stroke-width="1.5"></path><path d="M857.02 61.72L666.28 197.06" stroke="#132e65" stroke-width="1.5"></path><path d="M837.62 197.52L837.62 197.52" stroke="#132e65" stroke-width="1.5"></path><path d="M837.62 197.52L979.46 188.75" stroke="#132e65" stroke-width="1.5"></path><path d="M837.62 197.52L666.28 197.06" stroke="#132e65" stroke-width="1.5"></path><path d="M837.62 197.52L851.08 383.4" stroke="#132e65" stroke-width="1.5"></path><path d="M837.62 197.52L959.74 40.66" stroke="#132e65" stroke-width="1.5"></path><path d="M851.08 383.4L851.08 383.4" stroke="#132e65" stroke-width="1.5"></path><path d="M851.08 383.4L971.82 346.52" stroke="#132e65" stroke-width="1.5"></path><path d="M851.08 383.4L979.46 188.75" stroke="#132e65" stroke-width="1.5"></path><path d="M851.08 383.4L1109.69 391.51" stroke="#132e65" stroke-width="1.5"></path><path d="M1004.17 -38.82L1004.17 -38.82" stroke="#132e65" stroke-width="1.5"></path><path d="M1004.17 -38.82L959.74 40.66" stroke="#132e65" stroke-width="1.5"></path><path d="M1004.17 -38.82L1104.33 46.17" stroke="#132e65" stroke-width="1.5"></path><path d="M959.74 40.66L959.74 40.66" stroke="#132e65" stroke-width="1.5"></path><path d="M959.74 40.66L1104.33 46.17" stroke="#132e65" stroke-width="1.5"></path><path d="M959.74 40.66L979.46 188.75" stroke="#132e65" stroke-width="1.5"></path><path d="M959.74 40.66L1135.68 -84.57" stroke="#132e65" stroke-width="1.5"></path><path d="M979.46 188.75L979.46 188.75" stroke="#132e65" stroke-width="1.5"></path><path d="M971.82 346.52L971.82 346.52" stroke="#132e65" stroke-width="1.5"></path><path d="M971.82 346.52L1109.69 391.51" stroke="#132e65" stroke-width="1.5"></path><path d="M971.82 346.52L979.46 188.75" stroke="#132e65" stroke-width="1.5"></path><path d="M971.82 346.52L837.62 197.52" stroke="#132e65" stroke-width="1.5"></path><path d="M971.82 346.52L1160.17 245.86" stroke="#132e65" stroke-width="1.5"></path><path d="M1135.68 -84.57L1135.68 -84.57" stroke="#132e65" stroke-width="1.5"></path><path d="M1135.68 -84.57L1104.33 46.17" stroke="#132e65" stroke-width="1.5"></path><path d="M1135.68 -84.57L1004.17 -38.82" stroke="#132e65" stroke-width="1.5"></path><path d="M1135.68 -84.57L1291.3 -62.87" stroke="#132e65" stroke-width="1.5"></path><path d="M1135.68 -84.57L1296.39 75.77" stroke="#132e65" stroke-width="1.5"></path><path d="M1104.33 46.17L1104.33 46.17" stroke="#132e65" stroke-width="1.5"></path><path d="M1104.33 46.17L979.46 188.75" stroke="#132e65" stroke-width="1.5"></path><path d="M1160.17 245.86L1160.17 245.86" stroke="#132e65" stroke-width="1.5"></path><path d="M1160.17 245.86L1290.95 210.8" stroke="#132e65" stroke-width="1.5"></path><path d="M1160.17 245.86L1109.69 391.51" stroke="#132e65" stroke-width="1.5"></path><path d="M1160.17 245.86L1249.6 402.84" stroke="#132e65" stroke-width="1.5"></path><path d="M1160.17 245.86L979.46 188.75" stroke="#132e65" stroke-width="1.5"></path><path d="M1160.17 245.86L1104.33 46.17" stroke="#132e65" stroke-width="1.5"></path><path d="M1109.69 391.51L1109.69 391.51" stroke="#132e65" stroke-width="1.5"></path><path d="M1109.69 391.51L1249.6 402.84" stroke="#132e65" stroke-width="1.5"></path><path d="M1109.69 391.51L979.46 188.75" stroke="#132e65" stroke-width="1.5"></path><path d="M1109.69 391.51L1290.95 210.8" stroke="#132e65" stroke-width="1.5"></path><path d="M1291.3 -62.87L1291.3 -62.87" stroke="#132e65" stroke-width="1.5"></path><path d="M1291.3 -62.87L1296.39 75.77" stroke="#132e65" stroke-width="1.5"></path><path d="M1291.3 -62.87L1401.77 40.49" stroke="#132e65" stroke-width="1.5"></path><path d="M1291.3 -62.87L1443.17 -97.36" stroke="#132e65" stroke-width="1.5"></path><path d="M1291.3 -62.87L1104.33 46.17" stroke="#132e65" stroke-width="1.5"></path><path d="M1296.39 75.77L1296.39 75.77" stroke="#132e65" stroke-width="1.5"></path><path d="M1296.39 75.77L1401.77 40.49" stroke="#132e65" stroke-width="1.5"></path><path d="M1296.39 75.77L1290.95 210.8" stroke="#132e65" stroke-width="1.5"></path><path d="M1296.39 75.77L1415.99 215.22" stroke="#132e65" stroke-width="1.5"></path><path d="M1290.95 210.8L1290.95 210.8" stroke="#132e65" stroke-width="1.5"></path><path d="M1290.95 210.8L1415.99 215.22" stroke="#132e65" stroke-width="1.5"></path><path d="M1249.6 402.84L1249.6 402.84" stroke="#132e65" stroke-width="1.5"></path><path d="M1249.6 402.84L1394.59 359.72" stroke="#132e65" stroke-width="1.5"></path><path d="M1443.17 -97.36L1443.17 -97.36" stroke="#132e65" stroke-width="1.5"></path><path d="M1443.17 -97.36L1563.56 -79.49" stroke="#132e65" stroke-width="1.5"></path><path d="M1443.17 -97.36L1401.77 40.49" stroke="#132e65" stroke-width="1.5"></path><path d="M1443.17 -97.36L1563.33 66.36" stroke="#132e65" stroke-width="1.5"></path><path d="M1443.17 -97.36L1296.39 75.77" stroke="#132e65" stroke-width="1.5"></path><path d="M1443.17 -97.36L1135.68 -84.57" stroke="#132e65" stroke-width="1.5"></path><path d="M1401.77 40.49L1401.77 40.49" stroke="#132e65" stroke-width="1.5"></path><path d="M1401.77 40.49L1563.33 66.36" stroke="#132e65" stroke-width="1.5"></path><path d="M1401.77 40.49L1415.99 215.22" stroke="#132e65" stroke-width="1.5"></path><path d="M1401.77 40.49L1563.56 -79.49" stroke="#132e65" stroke-width="1.5"></path><path d="M1415.99 215.22L1415.99 215.22" stroke="#132e65" stroke-width="1.5"></path><path d="M1415.99 215.22L1394.59 359.72" stroke="#132e65" stroke-width="1.5"></path><path d="M1394.59 359.72L1394.59 359.72" stroke="#132e65" stroke-width="1.5"></path><path d="M1563.56 -79.49L1563.56 -79.49" stroke="#132e65" stroke-width="1.5"></path><path d="M1563.56 -79.49L1563.33 66.36" stroke="#132e65" stroke-width="1.5"></path><path d="M1563.56 -79.49L1600.26 189.15" stroke="#132e65" stroke-width="1.5"></path><path d="M1563.33 66.36L1563.33 66.36" stroke="#132e65" stroke-width="1.5"></path><path d="M1563.33 66.36L1600.26 189.15" stroke="#132e65" stroke-width="1.5"></path><path d="M1600.26 189.15L1600.26 189.15" stroke="#132e65" stroke-width="1.5"></path><path d="M1600.26 189.15L1604.23 340.65" stroke="#132e65" stroke-width="1.5"></path><path d="M1600.26 189.15L1415.99 215.22" stroke="#132e65" stroke-width="1.5"></path><path d="M1604.23 340.65L1604.23 340.65" stroke="#132e65" stroke-width="1.5"></path><path d="M1604.23 340.65L1394.59 359.72" stroke="#132e65" stroke-width="1.5"></path><path d="M1604.23 340.65L1415.99 215.22" stroke="#132e65" stroke-width="1.5"></path><circle r="5" cx="-103.38" cy="250.91" fill="#132e65"></circle><circle r="5" cx="-82.44" cy="340.53" fill="#132e65"></circle><circle r="5" cx="39.34" cy="111.78" fill="#132e65"></circle><circle r="5" cx="95.72" cy="197.17" fill="#132e65"></circle><circle r="5" cx="227.8" cy="261.78" fill="#132e65"></circle><circle r="5" cx="212.69" cy="367.16" fill="#132e65"></circle><circle r="5" cx="354.6" cy="233.48" fill="#132e65"></circle><circle r="5" cx="374.01" cy="378.63" fill="#132e65"></circle><circle r="5" cx="510.22" cy="246.39" fill="#132e65"></circle><circle r="5" cx="531.13" cy="341.98" fill="#132e65"></circle><circle r="5" cx="683.32" cy="98.98" fill="#132e65"></circle><circle r="5" cx="666.28" cy="197.06" fill="#132e65"></circle><circle r="5" cx="657.44" cy="411.1" fill="#132e65"></circle><circle r="5" cx="857.02" cy="61.72" fill="#132e65"></circle><circle r="5" cx="837.62" cy="197.52" fill="#132e65"></circle><circle r="5" cx="851.08" cy="383.4" fill="#132e65"></circle><circle r="5" cx="1004.17" cy="-38.82" fill="#132e65"></circle><circle r="5" cx="959.74" cy="40.66" fill="#132e65"></circle><circle r="5" cx="979.46" cy="188.75" fill="#132e65"></circle><circle r="5" cx="971.82" cy="346.52" fill="#132e65"></circle><circle r="5" cx="1135.68" cy="-84.57" fill="#132e65"></circle><circle r="5" cx="1104.33" cy="46.17" fill="#132e65"></circle><circle r="5" cx="1160.17" cy="245.86" fill="#132e65"></circle><circle r="5" cx="1109.69" cy="391.51" fill="#132e65"></circle><circle r="5" cx="1291.3" cy="-62.87" fill="#132e65"></circle><circle r="5" cx="1296.39" cy="75.77" fill="#132e65"></circle><circle r="5" cx="1290.95" cy="210.8" fill="#132e65"></circle><circle r="5" cx="1249.6" cy="402.84" fill="#132e65"></circle><circle r="5" cx="1443.17" cy="-97.36" fill="#132e65"></circle><circle r="5" cx="1401.77" cy="40.49" fill="#132e65"></circle><circle r="5" cx="1415.99" cy="215.22" fill="#132e65"></circle><circle r="5" cx="1394.59" cy="359.72" fill="#132e65"></circle><circle r="5" cx="1563.56" cy="-79.49" fill="#132e65"></circle><circle r="5" cx="1563.33" cy="66.36" fill="#132e65"></circle><circle r="5" cx="1600.26" cy="189.15" fill="#132e65"></circle><circle r="5" cx="1604.23" cy="340.65" fill="#132e65"></circle><path d="M101.02 201.4L101.02 201.4" stroke="hsl(228.60000000000002, 31.8%, 33.6%)" stroke-width="1.5"></path><path d="M101.02 201.4L244.87 232.87" stroke="hsl(228.60000000000002, 31.8%, 33.6%)" stroke-width="1.5"></path><path d="M101.02 201.4L54.43 375.41" stroke="hsl(228.60000000000002, 31.8%, 33.6%)" stroke-width="1.5"></path><path d="M101.02 201.4L-93.38 209.22" stroke="hsl(228.60000000000002, 31.8%, 33.6%)" stroke-width="1.5"></path><path d="M101.02 201.4L198.06 379.16" stroke="hsl(228.60000000000002, 31.8%, 33.6%)" stroke-width="1.5"></path><path d="M377.23 232.93L377.23 232.93" stroke="hsl(228.60000000000002, 31.8%, 33.6%)" stroke-width="1.5"></path><path d="M377.23 232.93L244.87 232.87" stroke="hsl(228.60000000000002, 31.8%, 33.6%)" stroke-width="1.5"></path><path d="M377.23 232.93L405.9 406.82" stroke="hsl(228.60000000000002, 31.8%, 33.6%)" stroke-width="1.5"></path><path d="M691.89 337.97L691.89 337.97" stroke="hsl(228.60000000000002, 31.8%, 33.6%)" stroke-width="1.5"></path><path d="M691.89 337.97L804.84 337.72" stroke="hsl(228.60000000000002, 31.8%, 33.6%)" stroke-width="1.5"></path><path d="M691.89 337.97L693.5 196.62" stroke="hsl(228.60000000000002, 31.8%, 33.6%)" stroke-width="1.5"></path><path d="M691.89 337.97L543.68 352.63" stroke="hsl(228.60000000000002, 31.8%, 33.6%)" stroke-width="1.5"></path><path d="M980.41 205L980.41 205" stroke="hsl(228.60000000000002, 31.8%, 33.6%)" stroke-width="1.5"></path><path d="M980.41 205L1006.81 112.03" stroke="hsl(228.60000000000002, 31.8%, 33.6%)" stroke-width="1.5"></path><path d="M980.41 205L1127.67 205.69" stroke="hsl(228.60000000000002, 31.8%, 33.6%)" stroke-width="1.5"></path><path d="M980.41 205L947.69 356.6" stroke="hsl(228.60000000000002, 31.8%, 33.6%)" stroke-width="1.5"></path><path d="M980.41 205L811.1 213.35" stroke="hsl(228.60000000000002, 31.8%, 33.6%)" stroke-width="1.5"></path><path d="M980.41 205L1135.63 339.63" stroke="hsl(228.60000000000002, 31.8%, 33.6%)" stroke-width="1.5"></path><path d="M980.41 205L1118.71 46.09" stroke="hsl(228.60000000000002, 31.8%, 33.6%)" stroke-width="1.5"></path><path d="M947.69 356.6L947.69 356.6" stroke="hsl(228.60000000000002, 31.8%, 33.6%)" stroke-width="1.5"></path><path d="M947.69 356.6L804.84 337.72" stroke="hsl(228.60000000000002, 31.8%, 33.6%)" stroke-width="1.5"></path><path d="M947.69 356.6L1135.63 339.63" stroke="hsl(228.60000000000002, 31.8%, 33.6%)" stroke-width="1.5"></path><path d="M1432.17 398.96L1432.17 398.96" stroke="hsl(228.60000000000002, 31.8%, 33.6%)" stroke-width="1.5"></path><path d="M1432.17 398.96L1541.02 380.05" stroke="hsl(228.60000000000002, 31.8%, 33.6%)" stroke-width="1.5"></path><path d="M-93.38 209.22L-93.38 209.22" stroke="hsl(228.60000000000002, 31.8%, 33.6%)" stroke-width="1.5"></path><path d="M-93.38 209.22L-47.49 398.83" stroke="hsl(228.60000000000002, 31.8%, 33.6%)" stroke-width="1.5"></path><path d="M-93.38 209.22L54.43 375.41" stroke="hsl(228.60000000000002, 31.8%, 33.6%)" stroke-width="1.5"></path><path d="M-93.38 209.22L198.06 379.16" stroke="hsl(228.60000000000002, 31.8%, 33.6%)" stroke-width="1.5"></path><path d="M-93.38 209.22L244.87 232.87" stroke="hsl(228.60000000000002, 31.8%, 33.6%)" stroke-width="1.5"></path><path d="M-93.38 209.22L377.23 232.93" stroke="hsl(228.60000000000002, 31.8%, 33.6%)" stroke-width="1.5"></path><path d="M-47.49 398.83L-47.49 398.83" stroke="hsl(228.60000000000002, 31.8%, 33.6%)" stroke-width="1.5"></path><path d="M-47.49 398.83L54.43 375.41" stroke="hsl(228.60000000000002, 31.8%, 33.6%)" stroke-width="1.5"></path><path d="M54.43 375.41L54.43 375.41" stroke="hsl(228.60000000000002, 31.8%, 33.6%)" stroke-width="1.5"></path><path d="M54.43 375.41L198.06 379.16" stroke="hsl(228.60000000000002, 31.8%, 33.6%)" stroke-width="1.5"></path><path d="M244.87 232.87L244.87 232.87" stroke="hsl(228.60000000000002, 31.8%, 33.6%)" stroke-width="1.5"></path><path d="M244.87 232.87L198.06 379.16" stroke="hsl(228.60000000000002, 31.8%, 33.6%)" stroke-width="1.5"></path><path d="M244.87 232.87L405.9 406.82" stroke="hsl(228.60000000000002, 31.8%, 33.6%)" stroke-width="1.5"></path><path d="M244.87 232.87L54.43 375.41" stroke="hsl(228.60000000000002, 31.8%, 33.6%)" stroke-width="1.5"></path><path d="M198.06 379.16L198.06 379.16" stroke="hsl(228.60000000000002, 31.8%, 33.6%)" stroke-width="1.5"></path><path d="M198.06 379.16L405.9 406.82" stroke="hsl(228.60000000000002, 31.8%, 33.6%)" stroke-width="1.5"></path><path d="M198.06 379.16L377.23 232.93" stroke="hsl(228.60000000000002, 31.8%, 33.6%)" stroke-width="1.5"></path><path d="M198.06 379.16L-47.49 398.83" stroke="hsl(228.60000000000002, 31.8%, 33.6%)" stroke-width="1.5"></path><path d="M405.9 406.82L405.9 406.82" stroke="hsl(228.60000000000002, 31.8%, 33.6%)" stroke-width="1.5"></path><path d="M405.9 406.82L543.68 352.63" stroke="hsl(228.60000000000002, 31.8%, 33.6%)" stroke-width="1.5"></path><path d="M405.9 406.82L553.99 203.53" stroke="hsl(228.60000000000002, 31.8%, 33.6%)" stroke-width="1.5"></path><path d="M553.99 203.53L553.99 203.53" stroke="hsl(228.60000000000002, 31.8%, 33.6%)" stroke-width="1.5"></path><path d="M553.99 203.53L693.5 196.62" stroke="hsl(228.60000000000002, 31.8%, 33.6%)" stroke-width="1.5"></path><path d="M553.99 203.53L543.68 352.63" stroke="hsl(228.60000000000002, 31.8%, 33.6%)" stroke-width="1.5"></path><path d="M553.99 203.53L377.23 232.93" stroke="hsl(228.60000000000002, 31.8%, 33.6%)" stroke-width="1.5"></path><path d="M553.99 203.53L691.89 337.97" stroke="hsl(228.60000000000002, 31.8%, 33.6%)" stroke-width="1.5"></path><path d="M553.99 203.53L811.1 213.35" stroke="hsl(228.60000000000002, 31.8%, 33.6%)" stroke-width="1.5"></path><path d="M543.68 352.63L543.68 352.63" stroke="hsl(228.60000000000002, 31.8%, 33.6%)" stroke-width="1.5"></path><path d="M543.68 352.63L377.23 232.93" stroke="hsl(228.60000000000002, 31.8%, 33.6%)" stroke-width="1.5"></path><path d="M693.5 196.62L693.5 196.62" stroke="hsl(228.60000000000002, 31.8%, 33.6%)" stroke-width="1.5"></path><path d="M693.5 196.62L811.1 213.35" stroke="hsl(228.60000000000002, 31.8%, 33.6%)" stroke-width="1.5"></path><path d="M693.5 196.62L804.84 337.72" stroke="hsl(228.60000000000002, 31.8%, 33.6%)" stroke-width="1.5"></path><path d="M693.5 196.62L543.68 352.63" stroke="hsl(228.60000000000002, 31.8%, 33.6%)" stroke-width="1.5"></path><path d="M693.5 196.62L980.41 205" stroke="hsl(228.60000000000002, 31.8%, 33.6%)" stroke-width="1.5"></path><path d="M811.1 213.35L811.1 213.35" stroke="hsl(228.60000000000002, 31.8%, 33.6%)" stroke-width="1.5"></path><path d="M811.1 213.35L804.84 337.72" stroke="hsl(228.60000000000002, 31.8%, 33.6%)" stroke-width="1.5"></path><path d="M804.84 337.72L804.84 337.72" stroke="hsl(228.60000000000002, 31.8%, 33.6%)" stroke-width="1.5"></path><path d="M1006.81 112.03L1006.81 112.03" stroke="hsl(228.60000000000002, 31.8%, 33.6%)" stroke-width="1.5"></path><path d="M1006.81 112.03L1118.71 46.09" stroke="hsl(228.60000000000002, 31.8%, 33.6%)" stroke-width="1.5"></path><path d="M1006.81 112.03L1127.67 205.69" stroke="hsl(228.60000000000002, 31.8%, 33.6%)" stroke-width="1.5"></path><path d="M1006.81 112.03L811.1 213.35" stroke="hsl(228.60000000000002, 31.8%, 33.6%)" stroke-width="1.5"></path><path d="M1118.71 46.09L1118.71 46.09" stroke="hsl(228.60000000000002, 31.8%, 33.6%)" stroke-width="1.5"></path><path d="M1118.71 46.09L1127.67 205.69" stroke="hsl(228.60000000000002, 31.8%, 33.6%)" stroke-width="1.5"></path><path d="M1118.71 46.09L1245.63 -74.01" stroke="hsl(228.60000000000002, 31.8%, 33.6%)" stroke-width="1.5"></path><path d="M1127.67 205.69L1127.67 205.69" stroke="hsl(228.60000000000002, 31.8%, 33.6%)" stroke-width="1.5"></path><path d="M1127.67 205.69L1135.63 339.63" stroke="hsl(228.60000000000002, 31.8%, 33.6%)" stroke-width="1.5"></path><path d="M1135.63 339.63L1135.63 339.63" stroke="hsl(228.60000000000002, 31.8%, 33.6%)" stroke-width="1.5"></path><path d="M1135.63 339.63L1299.28 344.33" stroke="hsl(228.60000000000002, 31.8%, 33.6%)" stroke-width="1.5"></path><path d="M1135.63 339.63L1299.98 187.57" stroke="hsl(228.60000000000002, 31.8%, 33.6%)" stroke-width="1.5"></path><path d="M1135.63 339.63L1006.81 112.03" stroke="hsl(228.60000000000002, 31.8%, 33.6%)" stroke-width="1.5"></path><path d="M1245.63 -74.01L1245.63 -74.01" stroke="hsl(228.60000000000002, 31.8%, 33.6%)" stroke-width="1.5"></path><path d="M1245.63 -74.01L1394.2 -104.57" stroke="hsl(228.60000000000002, 31.8%, 33.6%)" stroke-width="1.5"></path><path d="M1245.63 -74.01L1307.61 110.32" stroke="hsl(228.60000000000002, 31.8%, 33.6%)" stroke-width="1.5"></path><path d="M1307.61 110.32L1307.61 110.32" stroke="hsl(228.60000000000002, 31.8%, 33.6%)" stroke-width="1.5"></path><path d="M1307.61 110.32L1299.98 187.57" stroke="hsl(228.60000000000002, 31.8%, 33.6%)" stroke-width="1.5"></path><path d="M1307.61 110.32L1425.1 72.76" stroke="hsl(228.60000000000002, 31.8%, 33.6%)" stroke-width="1.5"></path><path d="M1307.61 110.32L1393.92 247.46" stroke="hsl(228.60000000000002, 31.8%, 33.6%)" stroke-width="1.5"></path><path d="M1307.61 110.32L1118.71 46.09" stroke="hsl(228.60000000000002, 31.8%, 33.6%)" stroke-width="1.5"></path><path d="M1299.98 187.57L1299.98 187.57" stroke="hsl(228.60000000000002, 31.8%, 33.6%)" stroke-width="1.5"></path><path d="M1299.28 344.33L1299.28 344.33" stroke="hsl(228.60000000000002, 31.8%, 33.6%)" stroke-width="1.5"></path><path d="M1299.28 344.33L1393.92 247.46" stroke="hsl(228.60000000000002, 31.8%, 33.6%)" stroke-width="1.5"></path><path d="M1299.28 344.33L1432.17 398.96" stroke="hsl(228.60000000000002, 31.8%, 33.6%)" stroke-width="1.5"></path><path d="M1299.28 344.33L1299.98 187.57" stroke="hsl(228.60000000000002, 31.8%, 33.6%)" stroke-width="1.5"></path><path d="M1299.28 344.33L1127.67 205.69" stroke="hsl(228.60000000000002, 31.8%, 33.6%)" stroke-width="1.5"></path><path d="M1394.2 -104.57L1394.2 -104.57" stroke="hsl(228.60000000000002, 31.8%, 33.6%)" stroke-width="1.5"></path><path d="M1394.2 -104.57L1425.1 72.76" stroke="hsl(228.60000000000002, 31.8%, 33.6%)" stroke-width="1.5"></path><path d="M1394.2 -104.57L1593.52 -71.45" stroke="hsl(228.60000000000002, 31.8%, 33.6%)" stroke-width="1.5"></path><path d="M1394.2 -104.57L1307.61 110.32" stroke="hsl(228.60000000000002, 31.8%, 33.6%)" stroke-width="1.5"></path><path d="M1425.1 72.76L1425.1 72.76" stroke="hsl(228.60000000000002, 31.8%, 33.6%)" stroke-width="1.5"></path><path d="M1425.1 72.76L1570.74 68.12" stroke="hsl(228.60000000000002, 31.8%, 33.6%)" stroke-width="1.5"></path><path d="M1425.1 72.76L1299.98 187.57" stroke="hsl(228.60000000000002, 31.8%, 33.6%)" stroke-width="1.5"></path><path d="M1425.1 72.76L1393.92 247.46" stroke="hsl(228.60000000000002, 31.8%, 33.6%)" stroke-width="1.5"></path><path d="M1425.1 72.76L1601.46 206.02" stroke="hsl(228.60000000000002, 31.8%, 33.6%)" stroke-width="1.5"></path><path d="M1393.92 247.46L1393.92 247.46" stroke="hsl(228.60000000000002, 31.8%, 33.6%)" stroke-width="1.5"></path><path d="M1393.92 247.46L1299.98 187.57" stroke="hsl(228.60000000000002, 31.8%, 33.6%)" stroke-width="1.5"></path><path d="M1593.52 -71.45L1593.52 -71.45" stroke="hsl(228.60000000000002, 31.8%, 33.6%)" stroke-width="1.5"></path><path d="M1593.52 -71.45L1570.74 68.12" stroke="hsl(228.60000000000002, 31.8%, 33.6%)" stroke-width="1.5"></path><path d="M1593.52 -71.45L1425.1 72.76" stroke="hsl(228.60000000000002, 31.8%, 33.6%)" stroke-width="1.5"></path><path d="M1593.52 -71.45L1601.46 206.02" stroke="hsl(228.60000000000002, 31.8%, 33.6%)" stroke-width="1.5"></path><path d="M1570.74 68.12L1570.74 68.12" stroke="hsl(228.60000000000002, 31.8%, 33.6%)" stroke-width="1.5"></path><path d="M1570.74 68.12L1601.46 206.02" stroke="hsl(228.60000000000002, 31.8%, 33.6%)" stroke-width="1.5"></path><path d="M1570.74 68.12L1394.2 -104.57" stroke="hsl(228.60000000000002, 31.8%, 33.6%)" stroke-width="1.5"></path><path d="M1570.74 68.12L1393.92 247.46" stroke="hsl(228.60000000000002, 31.8%, 33.6%)" stroke-width="1.5"></path><path d="M1570.74 68.12L1307.61 110.32" stroke="hsl(228.60000000000002, 31.8%, 33.6%)" stroke-width="1.5"></path><path d="M1601.46 206.02L1601.46 206.02" stroke="hsl(228.60000000000002, 31.8%, 33.6%)" stroke-width="1.5"></path><path d="M1601.46 206.02L1541.02 380.05" stroke="hsl(228.60000000000002, 31.8%, 33.6%)" stroke-width="1.5"></path><path d="M1601.46 206.02L1393.92 247.46" stroke="hsl(228.60000000000002, 31.8%, 33.6%)" stroke-width="1.5"></path><path d="M1541.02 380.05L1541.02 380.05" stroke="hsl(228.60000000000002, 31.8%, 33.6%)" stroke-width="1.5"></path><circle r="25" cx="101.02" cy="201.4" fill="url(&quot;#SvgjsRadialGradient1195&quot;)"></circle><circle r="25" cx="377.23" cy="232.93" fill="url(&quot;#SvgjsRadialGradient1195&quot;)"></circle><circle r="25" cx="691.89" cy="337.97" fill="url(&quot;#SvgjsRadialGradient1195&quot;)"></circle><circle r="25" cx="980.41" cy="205" fill="url(&quot;#SvgjsRadialGradient1195&quot;)"></circle><circle r="25" cx="947.69" cy="356.6" fill="url(&quot;#SvgjsRadialGradient1195&quot;)"></circle><circle r="25" cx="1432.17" cy="398.96" fill="url(&quot;#SvgjsRadialGradient1195&quot;)"></circle><circle r="5" cx="-93.38" cy="209.22" fill="#969aab"></circle><circle r="5" cx="-47.49" cy="398.83" fill="#969aab"></circle><circle r="5" cx="54.43" cy="375.41" fill="#969aab"></circle><circle r="5" cx="244.87" cy="232.87" fill="#969aab"></circle><circle r="5" cx="198.06" cy="379.16" fill="#969aab"></circle><circle r="5" cx="405.9" cy="406.82" fill="#969aab"></circle><circle r="5" cx="553.99" cy="203.53" fill="#969aab"></circle><circle r="5" cx="543.68" cy="352.63" fill="#969aab"></circle><circle r="5" cx="693.5" cy="196.62" fill="#969aab"></circle><circle r="5" cx="811.1" cy="213.35" fill="#969aab"></circle><circle r="5" cx="804.84" cy="337.72" fill="#969aab"></circle><circle r="5" cx="1006.81" cy="112.03" fill="#969aab"></circle><circle r="5" cx="1118.71" cy="46.09" fill="#969aab"></circle><circle r="5" cx="1127.67" cy="205.69" fill="#969aab"></circle><circle r="5" cx="1135.63" cy="339.63" fill="#969aab"></circle><circle r="5" cx="1245.63" cy="-74.01" fill="#969aab"></circle><circle r="5" cx="1307.61" cy="110.32" fill="#969aab"></circle><circle r="5" cx="1299.98" cy="187.57" fill="#969aab"></circle><circle r="5" cx="1299.28" cy="344.33" fill="#969aab"></circle><circle r="5" cx="1394.2" cy="-104.57" fill="#969aab"></circle><circle r="5" cx="1425.1" cy="72.76" fill="#969aab"></circle><circle r="5" cx="1393.92" cy="247.46" fill="#969aab"></circle><circle r="5" cx="1593.52" cy="-71.45" fill="#969aab"></circle><circle r="5" cx="1570.74" cy="68.12" fill="#969aab"></circle><circle r="5" cx="1601.46" cy="206.02" fill="#969aab"></circle><circle r="5" cx="1541.02" cy="380.05" fill="#969aab"></circle></g><defs><mask id="SvgjsMask1194"><rect width="1440" height="170" fill="#ffffff"></rect></mask><radialGradient id="SvgjsRadialGradient1195"><stop stop-color="#ffffff" offset="0.1"></stop><stop stop-color="rgba(45, 53, 87, 1)" offset="0.2"></stop><stop stop-color="rgba(45, 53, 87, 0)" offset="1"></stop></radialGradient></defs></svg>